{
    "asset" : {
        "generator" : "Khronos glTF Blender I/O v3.2.43",
        "version" : "2.0"
    },
    "scene" : 0,
    "scenes" : [
        {
            "name" : "Scene",
            "nodes" : [
                0,
                1
            ]
        }
    ],
    "nodes" : [
        {
            "mesh" : 0,
            "name" : "monitor",
            "translation" : [
                -7.748603820800781e-06,
                0.8008196353912354,
                0.0030900686979293823
            ]
        },
        {
            "mesh" : 1,
            "name" : "monitorm",
            "translation" : [
                -7.748603820800781e-06,
                0.8008196353912354,
                0.0030900686979293823
            ]
        }
    ],
    "materials" : [
        {
            "doubleSided" : true,
            "name" : "frame",
            "pbrMetallicRoughness" : {
                "baseColorFactor" : [
                    0.0029088391456753016,
                    0.0029088391456753016,
                    0.0029088391456753016,
                    1
                ],
                "metallicFactor" : 0,
                "roughnessFactor" : 0.13636364042758942
            }
        },
        {
            "doubleSided" : true,
            "name" : "monitor.001",
            "pbrMetallicRoughness" : {
                "baseColorFactor" : [
                    0.17208875715732574,
                    0.8000000715255737,
                    0.4054505228996277,
                    1
                ],
                "metallicFactor" : 0,
                "roughnessFactor" : 0.5
            }
        }
    ],
    "meshes" : [
        {
            "name" : "moncube",
            "primitives" : [
                {
                    "attributes" : {
                        "POSITION" : 0,
                        "NORMAL" : 1,
                        "TEXCOORD_0" : 2
                    },
                    "indices" : 3,
                    "material" : 0
                }
            ]
        },
        {
            "name" : "moncube.001",
            "primitives" : [
                {
                    "attributes" : {
                        "POSITION" : 4,
                        "NORMAL" : 5,
                        "TEXCOORD_0" : 6
                    },
                    "indices" : 7,
                    "material" : 1
                }
            ]
        }
    ],
    "accessors" : [
        {
            "bufferView" : 0,
            "componentType" : 5126,
            "count" : 389,
            "max" : [
                1.0000001192092896,
                0.5752999782562256,
                0.10865236818790436
            ],
            "min" : [
                -1,
                -0.8204097747802734,
                -0.34233230352401733
            ],
            "type" : "VEC3"
        },
        {
            "bufferView" : 1,
            "componentType" : 5126,
            "count" : 389,
            "type" : "VEC3"
        },
        {
            "bufferView" : 2,
            "componentType" : 5126,
            "count" : 389,
            "type" : "VEC2"
        },
        {
            "bufferView" : 3,
            "componentType" : 5123,
            "count" : 1254,
            "type" : "SCALAR"
        },
        {
            "bufferView" : 4,
            "componentType" : 5126,
            "count" : 4,
            "max" : [
                0.9396581053733826,
                0.536184549331665,
                0.06204013526439667
            ],
            "min" : [
                -0.939657986164093,
                -0.536184549331665,
                -0.062040120363235474
            ],
            "type" : "VEC3"
        },
        {
            "bufferView" : 5,
            "componentType" : 5126,
            "count" : 4,
            "type" : "VEC3"
        },
        {
            "bufferView" : 6,
            "componentType" : 5126,
            "count" : 4,
            "type" : "VEC2"
        },
        {
            "bufferView" : 7,
            "componentType" : 5123,
            "count" : 6,
            "type" : "SCALAR"
        }
    ],
    "bufferViews" : [
        {
            "buffer" : 0,
            "byteLength" : 4668,
            "byteOffset" : 0
        },
        {
            "buffer" : 0,
            "byteLength" : 4668,
            "byteOffset" : 4668
        },
        {
            "buffer" : 0,
            "byteLength" : 3112,
            "byteOffset" : 9336
        },
        {
            "buffer" : 0,
            "byteLength" : 2508,
            "byteOffset" : 12448
        },
        {
            "buffer" : 0,
            "byteLength" : 48,
            "byteOffset" : 14956
        },
        {
            "buffer" : 0,
            "byteLength" : 48,
            "byteOffset" : 15004
        },
        {
            "buffer" : 0,
            "byteLength" : 32,
            "byteOffset" : 15052
        },
        {
            "buffer" : 0,
            "byteLength" : 12,
            "byteOffset" : 15084
        }
    ],
    "buffers" : [
        {
            "byteLength" : 15096,
            "uri" : "data:application/octet-stream;base64,"
        }
    ]
}
